<?xml version="1.0" standalone="no"?>
<!DOCTYPE svg PUBLIC "-//W3C//DTD SVG 20010904//EN"
 "http://www.w3.org/TR/2001/REC-SVG-20010904/DTD/svg10.dtd">
<svg version="1.0" xmlns="http://www.w3.org/2000/svg"
 width="300.000000pt" height="284.000000pt" viewBox="0 0 300.000000 284.000000"
 preserveAspectRatio="xMidYMid meet">

<g transform="translate(0.000000,284.000000) scale(0.100000,-0.100000)"
fill="#000000" stroke="none">
<path d="M1355 2713 c-370 -34 -715 -225 -938 -522 -121 -160 -194 -320 -238
-522 -34 -149 -34 -389 0 -538 40 -182 96 -315 199 -471 65 -98 227 -265 324
-333 345 -243 777 -308 1178 -177 196 64 361 168 515 324 192 194 300 392 361
662 24 107 29 349 10 466 -87 529 -476 952 -991 1077 -135 33 -291 46 -420 34z
m353 -32 c518 -101 919 -493 1033 -1011 34 -150 34 -390 0 -540 -85 -389 -331
-710 -678 -888 -199 -102 -371 -143 -598 -143 -347 0 -650 121 -898 360 -197
190 -321 414 -378 683 -31 145 -31 371 0 515 106 500 476 887 961 1006 134 33
137 34 312 36 109 1 173 -4 246 -18z"/>
<path d="M1210 2418 c0 -24 15 -37 30 -28 11 7 11 11 1 24 -16 19 -31 21 -31
4z"/>
<path d="M765 2410 c19 -8 19 -9 1 -9 -16 -1 -17 -4 -8 -13 10 -10 15 -10 22
2 11 18 4 30 -18 29 -14 0 -13 -2 3 -9z"/>
<path d="M2177 2395 c-17 -23 -17 -25 3 -35 12 -6 20 -7 20 -1 0 5 -8 12 -17
14 -17 4 -17 5 0 6 10 1 17 9 17 21 0 25 -1 25 -23 -5z"/>
<path d="M1653 2398 c-6 -7 -7 -22 -3 -33 7 -19 7 -19 18 1 13 25 1 52 -15 32z"/>
<path d="M1701 2374 c0 -11 3 -14 6 -6 3 7 2 16 -1 19 -3 4 -6 -2 -5 -13z"/>
<path d="M1201 2364 c0 -11 3 -14 6 -6 3 7 2 16 -1 19 -3 4 -6 -2 -5 -13z"/>
<path d="M780 2356 c0 -2 7 -9 15 -16 9 -7 15 -8 15 -2 0 5 -7 12 -15 16 -8 3
-15 4 -15 2z"/>
<path d="M1700 2344 c0 -6 7 -19 16 -30 14 -18 14 -18 3 6 -14 31 -19 36 -19
24z"/>
<path d="M1233 2300 c0 -25 2 -35 4 -22 2 12 2 32 0 45 -2 12 -4 2 -4 -23z"/>
<path d="M1868 2333 c6 -2 18 -2 25 0 6 3 1 5 -13 5 -14 0 -19 -2 -12 -5z"/>
<path d="M1126 2321 c-4 -5 -14 -8 -24 -5 -10 4 -13 2 -7 -3 6 -4 12 -17 13
-28 5 -29 7 -29 27 1 11 17 13 30 7 36 -6 6 -12 6 -16 -1z"/>
<path d="M1676 2315 c4 -8 11 -15 16 -15 6 0 5 6 -2 15 -7 8 -14 15 -16 15 -2
0 -1 -7 2 -15z"/>
<path d="M1750 2315 c-9 -10 -9 -15 -1 -15 6 0 11 6 11 13 0 8 4 7 10 -3 6 -9
10 -10 10 -3 0 19 -17 24 -30 8z"/>
<path d="M1915 2315 c2 -11 6 -28 10 -37 9 -22 -4 -23 -31 -3 -26 20 -29 19
-29 -9 0 -17 3 -22 12 -15 8 7 13 4 17 -9 4 -11 21 -27 38 -35 30 -14 34 -14
69 6 21 12 36 23 34 26 -3 2 -15 -3 -28 -12 -13 -9 -33 -14 -43 -12 -10 2 -24
4 -31 4 -9 1 -8 10 2 35 13 31 13 36 -5 58 -17 21 -19 21 -15 3z"/>
<path d="M2075 2288 l-40 -43 43 40 c39 36 47 45 39 45 -2 0 -21 -19 -42 -42z"/>
<path d="M1830 2312 c0 -5 16 -9 35 -10 21 -1 33 3 30 8 -8 12 -65 13 -65 2z"/>
<path d="M860 2296 c0 -2 8 -10 18 -17 15 -13 16 -12 3 4 -13 16 -21 21 -21
13z"/>
<path d="M2115 2264 c-10 -19 -34 -51 -52 -70 -18 -20 -33 -39 -33 -43 0 -3
-13 -15 -30 -24 -26 -16 -28 -21 -19 -44 5 -15 7 -46 2 -72 -4 -25 -7 -48 -6
-51 0 -3 3 -21 7 -41 l6 -36 -69 -7 c-39 -3 -81 -2 -95 4 -23 8 -25 8 -15 -8
8 -13 21 -16 50 -14 27 3 39 0 39 -9 0 -8 5 -6 13 5 10 14 22 17 46 14 22 -3
35 0 38 9 9 24 33 14 34 -14 2 -27 2 -27 6 -3 2 14 12 31 20 37 9 7 18 25 19
39 2 15 8 30 14 34 8 5 8 19 1 51 -6 24 -12 55 -14 69 -3 14 -5 1 -6 -28 -1
-48 -3 -52 -20 -43 -10 6 -21 8 -23 5 -11 -10 -18 65 -9 89 13 34 28 41 41 20
8 -15 9 -13 4 9 -5 21 0 35 20 59 29 34 60 89 54 95 -2 2 -12 -13 -23 -32z
m-52 -259 c14 -6 17 -14 11 -34 -4 -14 -7 -34 -8 -44 0 -13 -8 -17 -32 -15
-32 2 -32 2 -31 55 1 56 6 59 60 38z"/>
<path d="M820 2287 c0 -13 31 -69 57 -104 14 -18 22 -37 18 -43 -4 -6 -2 -9 3
-8 6 2 10 -1 10 -6 0 -5 5 -12 12 -16 8 -5 8 -14 0 -34 -15 -40 -11 -56 5 -21
13 28 14 25 12 -52 -1 -46 1 -83 5 -83 3 0 5 -6 4 -12 -3 -26 -18 -38 -39 -34
-16 2 -22 9 -20 27 1 15 0 17 -3 6 -3 -9 -10 -15 -15 -12 -16 10 -10 -1 15
-28 16 -17 27 -22 34 -15 15 15 32 0 32 -29 0 -35 13 -21 14 14 1 17 6 27 14
25 6 -1 12 3 12 9 0 6 -9 8 -20 4 -20 -6 -21 -6 -6 30 8 19 11 33 6 30 -9 -6
-15 18 -10 40 1 6 2 30 1 54 0 25 4 50 9 56 6 7 -3 19 -26 34 -19 13 -34 29
-34 36 0 7 -11 23 -24 36 -13 13 -33 42 -44 64 -12 22 -21 36 -22 32z"/>
<path d="M1049 2264 c-13 -14 -24 -33 -24 -42 0 -13 -8 -16 -32 -14 -39 4 -43
-8 -8 -25 14 -6 23 -7 19 -2 -3 5 4 9 14 9 11 0 25 7 32 15 12 14 15 13 32 -5
11 -12 17 -28 14 -36 -3 -8 -2 -12 3 -9 5 3 13 -5 16 -16 7 -20 8 -21 17 -5 7
12 7 21 -1 29 -7 7 -6 14 5 22 15 10 15 13 0 27 -12 12 -13 18 -3 21 6 3 -7 3
-30 1 -23 -2 -45 1 -48 6 -4 6 -1 9 5 8 6 -2 19 7 27 20 23 32 -6 30 -38 -4z"/>
<path d="M1755 2280 c-3 -5 -1 -10 4 -10 6 0 11 5 11 10 0 6 -2 10 -4 10 -3 0
-8 -4 -11 -10z"/>
<path d="M1418 2268 c-9 -25 2 -39 18 -23 9 8 12 19 9 25 -8 14 -22 13 -27 -2z"/>
<path d="M1164 2235 c-11 -22 -10 -23 7 -12 20 13 24 23 11 31 -4 2 -12 -6
-18 -19z"/>
<path d="M1710 2240 c6 -11 13 -20 16 -20 2 0 0 9 -6 20 -6 11 -13 20 -16 20
-2 0 0 -9 6 -20z"/>
<path d="M1817 2240 c3 -13 0 -20 -8 -20 -8 0 0 -12 16 -26 17 -14 25 -23 18
-20 -6 4 -15 1 -19 -5 -4 -8 -3 -9 4 -5 14 9 15 -4 2 -24 -9 -13 -10 -13 -10
0 0 12 -2 13 -9 1 -7 -11 -11 -9 -21 9 -10 18 -14 20 -21 9 -5 -8 -9 -18 -9
-24 0 -5 4 -4 8 3 7 9 13 8 27 -8 14 -16 18 -37 18 -117 0 -98 2 -91 13 45 4
51 11 79 24 92 11 11 14 22 9 33 -6 10 -4 17 6 21 8 3 15 10 15 17 0 6 -7 9
-15 5 -8 -3 -15 -1 -15 4 0 5 -9 14 -19 19 -16 9 -18 8 -14 -9z"/>
<path d="M901 2236 c2 -2 15 -9 29 -15 24 -11 24 -11 6 3 -16 13 -49 24 -35
12z"/>
<path d="M1377 2219 c7 -7 15 -10 18 -7 3 3 -2 9 -12 12 -14 6 -15 5 -6 -5z"/>
<path d="M1406 2204 c-3 -8 -14 -14 -23 -13 -25 4 -63 -19 -58 -34 6 -16 -12
-44 -22 -34 -4 5 -1 12 7 17 8 5 12 12 8 15 -8 9 -48 -26 -42 -37 3 -4 0 -8
-7 -8 -7 0 -9 -3 -6 -7 4 -3 2 -12 -4 -20 -6 -7 -8 -13 -5 -13 4 0 2 -9 -4
-20 -6 -11 -15 -18 -21 -15 -5 4 -10 -4 -11 -17 -1 -29 -3 -39 -11 -60 -4 -10
-9 -26 -12 -35 -5 -16 -4 -16 9 0 8 10 23 25 33 33 16 12 16 13 1 8 -16 -5
-16 -3 -6 27 6 19 16 39 22 45 6 7 19 22 29 34 10 12 24 19 32 16 16 -6 37 47
28 72 -3 9 -3 14 2 10 4 -4 15 -3 22 4 10 8 17 9 21 1 4 -7 14 -2 25 12 9 13
13 26 8 29 -5 3 -12 -1 -15 -10z"/>
<path d="M1610 2212 c0 -6 -6 -9 -13 -6 -26 10 -45 -29 -51 -109 -3 -35 -1
-37 26 -35 17 1 27 7 24 14 -3 7 3 19 13 28 17 16 19 15 26 -16 6 -29 8 -31
16 -13 6 15 8 11 6 -19 -1 -24 3 -41 11 -43 6 -3 12 0 12 7 0 6 -5 8 -12 4 -8
-5 -9 -2 -5 10 4 10 7 27 7 38 0 11 8 22 20 25 11 3 20 9 20 14 0 5 -6 6 -14
3 -8 -3 -16 4 -20 20 -7 29 -51 38 -51 11 -1 -34 -48 -49 -59 -19 -10 26 -7
29 9 8 13 -17 13 -16 2 14 -10 27 -9 34 3 42 8 5 17 7 21 4 10 -6 23 15 15 23
-3 4 -6 1 -6 -5z m51 -105 c-15 -15 -21 -5 -14 22 5 21 7 21 16 6 6 -11 5 -21
-2 -28z"/>
<path d="M1200 2190 c-6 -11 -8 -20 -6 -20 3 0 10 9 16 20 6 11 8 20 6 20 -3
0 -10 -9 -16 -20z"/>
<path d="M1037 2159 c4 -13 8 -18 11 -10 2 7 -1 18 -6 23 -8 8 -9 4 -5 -13z"/>
<path d="M1142 2127 c-5 -18 -10 -81 -11 -142 -1 -60 -6 -114 -11 -119 -4 -4
-29 -4 -54 2 -26 5 -48 6 -51 2 -8 -13 7 -20 31 -14 15 4 24 2 24 -5 0 -7 10
-9 25 -7 21 4 28 -1 40 -27 10 -22 13 -24 8 -7 -8 29 -8 19 0 179 4 93 10 127
22 141 14 15 14 18 1 23 -10 4 -18 -4 -24 -26z"/>
<path d="M1405 2149 c-4 -6 -5 -12 -2 -15 2 -3 7 2 10 11 7 17 1 20 -8 4z"/>
<path d="M1917 2143 c-3 -5 -1 -17 4 -28 7 -17 8 -17 8 8 1 27 -4 34 -12 20z"/>
<path d="M1012 2120 c0 -14 2 -19 5 -12 2 6 2 18 0 25 -3 6 -5 1 -5 -13z"/>
<path d="M880 2101 c0 -11 5 -23 10 -26 6 -4 10 5 10 19 0 14 -4 26 -10 26 -5
0 -10 -9 -10 -19z"/>
<path d="M1373 2114 c3 -4 2 -16 -4 -27 -6 -10 -7 -17 -2 -14 6 4 16 -5 23
-18 16 -31 23 -31 52 -2 13 12 15 15 5 7 -11 -8 -22 -13 -26 -11 -14 9 -30 37
-31 54 0 9 -5 17 -12 17 -6 0 -8 -3 -5 -6z"/>
<path d="M1440 2109 c0 -5 5 -7 10 -4 6 3 10 8 10 11 0 2 -4 4 -10 4 -5 0 -10
-5 -10 -11z"/>
<path d="M1037 2090 c5 -18 -5 -25 -29 -21 -13 2 -9 -17 5 -22 7 -4 6 -6 -4
-6 -18 -1 -28 -19 -22 -38 7 -19 52 40 59 76 4 19 2 31 -4 31 -5 0 -8 -9 -5
-20z"/>
<path d="M1410 2100 c-9 -6 -10 -10 -3 -10 6 0 15 5 18 10 8 12 4 12 -15 0z"/>
<path d="M1890 2091 c0 -4 11 -25 25 -45 14 -20 25 -41 25 -46 0 -14 17 -12
26 2 4 7 3 8 -4 4 -7 -4 -13 -1 -13 6 -1 7 -2 18 -4 23 -1 6 -3 16 -3 23 -1 7
-7 10 -14 6 -7 -5 -9 -2 -5 9 3 9 -1 18 -9 21 -21 8 -24 8 -24 -3z"/>
<path d="M2025 2090 c-3 -5 -1 -18 4 -27 9 -16 10 -14 11 10 0 28 -5 34 -15
17z"/>
<path d="M1231 2064 c0 -11 3 -14 6 -6 3 7 2 16 -1 19 -3 4 -6 -2 -5 -13z"/>
<path d="M1719 2063 c-13 -16 -12 -17 4 -4 9 7 17 15 17 17 0 8 -8 3 -21 -13z"/>
<path d="M856 2038 c-17 -28 -18 -32 -3 -43 11 -8 13 -15 6 -22 -6 -6 -6 -18
0 -34 l10 -24 0 27 c1 21 7 29 25 34 17 4 23 11 19 21 -4 10 -8 11 -13 3 -5
-8 -9 -5 -13 9 -2 11 0 22 7 24 7 3 6 10 -4 21 -14 15 -17 13 -34 -16z"/>
<path d="M1541 1971 c-1 -46 2 -81 6 -77 4 4 8 33 9 64 0 31 4 66 8 77 6 14 5
16 -2 6 -8 -11 -10 -11 -15 0 -3 8 -6 -24 -6 -70z"/>
<path d="M1522 2010 c0 -14 2 -19 5 -12 2 6 2 18 0 25 -3 6 -5 1 -5 -13z"/>
<path d="M1304 1988 c-9 -18 -21 -36 -27 -40 -7 -4 -6 -12 2 -22 12 -14 16
-11 37 28 13 25 24 50 24 56 0 21 -20 9 -36 -22z m17 -1 c-10 -9 -11 -8 -5 6
3 10 9 15 12 12 3 -3 0 -11 -7 -18z"/>
<path d="M1691 1998 c-1 -10 -7 -15 -15 -12 -7 3 -16 -2 -20 -11 -3 -9 -2 -13
3 -10 6 3 13 -13 18 -35 8 -40 23 -54 32 -29 2 7 -1 9 -8 5 -7 -5 -11 1 -11
14 0 12 5 18 10 15 12 -7 12 19 0 55 -5 16 -8 19 -9 8z"/>
<path d="M1400 1946 c0 -31 6 -34 13 -6 3 11 1 23 -4 26 -5 3 -9 -6 -9 -20z"/>
<path d="M1511 1934 c0 -11 3 -14 6 -6 3 7 2 16 -1 19 -3 4 -6 -2 -5 -13z"/>
<path d="M1210 1893 c0 -15 39 -43 61 -43 9 0 23 -9 30 -20 13 -17 16 -18 33
-5 11 8 16 18 12 22 -4 4 -11 1 -17 -7 -8 -12 -16 -8 -45 25 -19 22 -32 32
-29 22 9 -23 -21 -23 -34 1 -6 9 -11 12 -11 5z"/>
<path d="M1410 1877 c0 -10 -8 -17 -19 -17 -26 0 -32 -12 -15 -28 9 -8 14 -9
14 -2 0 6 4 9 9 6 10 -6 25 43 16 52 -3 3 -5 -2 -5 -11z"/>
<path d="M1530 1859 c0 -11 4 -18 10 -14 5 3 7 12 3 20 -7 21 -13 19 -13 -6z"/>
<path d="M1676 1855 c4 -8 8 -15 10 -15 2 0 4 7 4 15 0 8 -4 15 -10 15 -5 0
-7 -7 -4 -15z"/>
<path d="M1502 1840 c0 -14 2 -19 5 -12 2 6 2 18 0 25 -3 6 -5 1 -5 -13z"/>
<path d="M1598 1825 c2 -14 6 -25 8 -25 2 0 4 11 4 25 0 14 -4 25 -9 25 -4 0
-6 -11 -3 -25z"/>
<path d="M1002 1820 c-8 -13 -8 -20 -2 -20 6 0 13 7 17 15 9 24 -1 27 -15 5z"/>
<path d="M1270 1806 c0 -19 3 -37 8 -40 4 -2 6 13 4 35 -5 48 -12 51 -12 5z"/>
<path d="M882 1814 c-7 -8 -8 -14 -3 -14 10 0 25 19 20 25 -2 1 -10 -3 -17
-11z"/>
<path d="M1520 1814 c0 -8 5 -12 10 -9 6 3 10 10 10 16 0 5 -4 9 -10 9 -5 0
-10 -7 -10 -16z"/>
<path d="M1910 1821 c0 -9 30 -24 36 -18 2 1 -6 8 -16 15 -11 7 -20 8 -20 3z"/>
<path d="M1972 1793 c-6 -20 -7 -32 -2 -27 10 10 25 64 18 64 -3 0 -10 -16
-16 -37z"/>
<path d="M1328 1806 c-20 -15 -23 -26 -8 -26 5 0 14 9 20 20 12 23 11 24 -12
6z"/>
<path d="M1413 1785 c0 -22 2 -30 4 -17 2 12 2 30 0 40 -3 9 -5 -1 -4 -23z"/>
<path d="M1813 1750 c0 -41 2 -58 4 -37 2 20 2 54 0 75 -2 20 -4 3 -4 -38z"/>
<path d="M1847 1798 c7 -8 10 -18 6 -21 -3 -4 1 -7 10 -7 24 0 21 17 -5 31
-20 11 -21 10 -11 -3z"/>
<path d="M1090 1787 c-8 -7 -16 -19 -17 -27 -1 -8 -4 -45 -8 -82 -4 -37 -11
-70 -16 -74 -5 -3 -21 -29 -35 -57 -33 -65 -24 -57 21 18 19 32 35 68 35 82 0
14 4 21 10 18 6 -3 10 -23 10 -43 0 -25 3 -33 9 -23 5 8 5 27 0 45 -13 44 -14
107 -2 114 7 5 16 44 9 42 -1 0 -8 -6 -16 -13z"/>
<path d="M1387 1793 c-4 -3 -7 -13 -7 -22 1 -13 3 -13 11 2 11 19 8 33 -4 20z"/>
<path d="M960 1778 c0 -9 5 -20 10 -23 13 -8 13 5 0 25 -8 13 -10 13 -10 -2z"/>
<path d="M1517 1761 c-4 -19 -5 -36 -2 -39 10 -11 16 7 13 40 l-3 33 -8 -34z"/>
<path d="M1605 1782 c-6 -4 -8 -40 -4 -92 5 -87 7 -77 13 62 0 21 1 38 1 38 0
0 -4 -4 -10 -8z"/>
<path d="M1692 1750 c0 -14 2 -19 5 -12 2 6 2 18 0 25 -3 6 -5 1 -5 -13z"/>
<path d="M972 1720 c0 -14 2 -19 5 -12 2 6 2 18 0 25 -3 6 -5 1 -5 -13z"/>
<path d="M1869 1677 c-2 -35 1 -67 8 -80 7 -12 10 -36 6 -55 -3 -19 0 -38 7
-47 12 -15 5 -19 -35 -18 -6 0 -12 -9 -13 -21 0 -11 -8 -26 -17 -32 -25 -18
-17 -28 9 -11 20 13 27 14 41 3 17 -13 17 -14 -1 -24 -17 -10 -17 -11 7 -12
15 0 32 6 38 14 7 8 21 12 31 9 14 -4 20 0 20 11 0 9 -3 15 -7 15 -5 -1 -18
-1 -29 0 -20 1 -22 7 -23 83 -1 45 -5 84 -9 87 -9 8 -14 26 -22 86 l-6 50 -5
-58z m14 -240 c-3 -5 -10 -4 -15 1 -6 6 -7 16 -3 22 6 9 9 9 16 -1 4 -7 5 -17
2 -22z"/>
<path d="M1962 1710 c0 -14 2 -19 5 -12 2 6 2 18 0 25 -3 6 -5 1 -5 -13z"/>
<path d="M1162 1695 c0 -16 2 -22 5 -12 2 9 2 23 0 30 -3 6 -5 -1 -5 -18z"/>
<path d="M1381 1668 c-1 -55 -9 -80 -24 -71 -5 3 -8 2 -4 -3 7 -12 -26 -153
-39 -162 -5 -4 1 -17 13 -29 13 -12 23 -18 23 -12 0 6 6 7 13 3 6 -4 3 3 -8
17 -11 13 -13 18 -5 12 8 -7 21 -13 30 -13 13 1 13 2 -1 13 -18 14 -32 86 -20
101 20 24 40 131 32 161 -9 28 -9 27 -10 -17z"/>
<path d="M1681 1694 c0 -11 3 -14 6 -6 3 7 2 16 -1 19 -3 4 -6 -2 -5 -13z"/>
<path d="M1304 1649 c0 -26 4 -45 9 -42 9 5 8 42 -2 68 -6 14 -8 6 -7 -26z"/>
<path d="M981 1662 c0 -13 -8 -36 -16 -52 -19 -36 -15 -38 11 -7 14 16 18 30
13 52 -5 24 -7 25 -8 7z"/>
<path d="M1950 1649 c0 -13 5 -31 10 -39 7 -11 8 -5 4 20 -8 43 -14 51 -14 19z"/>
<path d="M1811 1650 c0 -8 6 -28 14 -45 17 -39 18 -21 0 25 -7 19 -14 28 -14
20z"/>
<path d="M2132 1620 c0 -14 2 -19 5 -12 2 6 2 18 0 25 -3 6 -5 1 -5 -13z"/>
<path d="M1620 1625 c0 -5 5 -17 10 -25 5 -8 10 -10 10 -5 0 6 -5 17 -10 25
-5 8 -10 11 -10 5z"/>
<path d="M1151 1583 c-10 -26 -10 -27 4 -9 8 11 15 23 15 28 0 15 -7 8 -19
-19z"/>
<path d="M2185 1590 c-3 -5 -2 -10 4 -10 5 0 13 5 16 10 3 6 2 10 -4 10 -5 0
-13 -4 -16 -10z"/>
<path d="M1603 1550 c0 -25 2 -35 4 -22 2 12 2 32 0 45 -2 12 -4 2 -4 -23z"/>
<path d="M1641 1564 c0 -11 3 -14 6 -6 3 7 2 16 -1 19 -3 4 -6 -2 -5 -13z"/>
<path d="M1693 1545 c0 -22 2 -30 4 -17 2 12 2 30 0 40 -3 9 -5 -1 -4 -23z"/>
<path d="M782 1545 c0 -16 2 -22 5 -12 2 9 2 23 0 30 -3 6 -5 -1 -5 -18z"/>
<path d="M2154 1548 l-19 -23 23 19 c21 18 27 26 19 26 -2 0 -12 -10 -23 -22z"/>
<path d="M1283 1520 c0 -25 2 -35 4 -22 2 12 2 32 0 45 -2 12 -4 2 -4 -23z"/>
<path d="M1072 1498 c-2 -46 1 -57 16 -61 16 -4 16 -5 0 -6 -10 0 -18 -7 -18
-14 0 -9 10 -12 30 -9 20 3 37 -2 50 -13 11 -10 20 -13 20 -8 0 6 -7 16 -15
23 -8 7 -15 19 -15 26 0 8 -5 14 -11 14 -5 0 -7 -4 -4 -10 9 -14 -7 -12 -27 3
-10 9 -18 32 -21 63 l-3 49 -2 -57z"/>
<path d="M2096 1534 c-5 -14 -4 -15 9 -4 17 14 19 20 6 20 -5 0 -12 -7 -15
-16z"/>
<path d="M730 1525 c7 -8 17 -15 22 -15 6 0 5 7 -2 15 -7 8 -17 15 -22 15 -6
0 -5 -7 2 -15z"/>
<path d="M1141 1524 c0 -11 3 -14 6 -6 3 7 2 16 -1 19 -3 4 -6 -2 -5 -13z"/>
<path d="M927 1511 c-4 -17 -3 -21 5 -13 5 5 8 16 6 23 -3 8 -7 3 -11 -10z"/>
<path d="M2200 1510 c0 -5 5 -10 11 -10 5 0 7 5 4 10 -3 6 -8 10 -11 10 -2 0
-4 -4 -4 -10z"/>
<path d="M791 1505 c1 -19 18 -51 18 -35 0 8 -4 22 -9 30 -5 8 -9 11 -9 5z"/>
<path d="M1131 1484 c0 -11 3 -14 6 -6 3 7 2 16 -1 19 -3 4 -6 -2 -5 -13z"/>
<path d="M2063 1474 c-9 -25 12 -38 28 -17 13 17 13 17 -5 3 -18 -14 -18 -13
-12 8 8 25 -1 31 -11 6z"/>
<path d="M915 1469 c-23 -36 -3 -83 24 -56 8 8 11 7 11 -5 0 -14 19 -28 40
-28 4 0 3 11 -3 25 -8 17 -20 25 -38 25 -33 0 -41 8 -28 31 10 20 5 27 -6 8z"/>
<path d="M1547 1441 c-14 -24 -15 -30 -3 -34 19 -8 40 18 32 39 -4 12 -2 15 9
11 8 -4 17 -2 20 3 4 6 -4 10 -17 10 -15 0 -30 -10 -41 -29z"/>
<path d="M1651 1438 c0 -18 -2 -42 -4 -53 -2 -21 24 -31 51 -19 9 4 43 8 75 9
49 1 57 -2 57 -17 0 -15 9 -18 49 -18 31 0 53 5 61 15 11 14 10 14 -13 6 -38
-15 -87 -9 -84 9 1 11 -7 15 -30 14 -18 -1 -33 2 -33 7 0 5 5 9 12 9 6 0 8 3
5 6 -4 4 -13 1 -21 -5 -19 -16 -82 -10 -79 6 4 21 -16 63 -30 63 -8 0 -14 -13
-16 -32z m38 -58 c-7 -5 -19 -6 -26 -3 -11 5 -12 8 -2 13 7 5 19 6 26 3 11 -5
12 -8 2 -13z"/>
<path d="M1971 1454 c0 -11 3 -14 6 -6 3 7 2 16 -1 19 -3 4 -6 -2 -5 -13z"/>
<path d="M807 1432 c1 -8 3 -16 3 -18 0 -2 5 -4 10 -4 6 0 10 7 10 16 0 8 -4
13 -9 10 -5 -4 -11 -3 -14 1 -2 5 -2 2 0 -5z"/>
<path d="M2087 1430 c-31 -25 -38 -25 -31 -2 3 9 -4 1 -16 -18 -17 -28 -20
-30 -15 -10 5 19 4 22 -4 10 -17 -23 -13 -40 9 -40 11 0 27 11 36 25 9 14 22
25 29 25 7 0 18 7 25 15 18 22 -3 18 -33 -5z"/>
<path d="M1595 1430 c3 -5 8 -10 11 -10 2 0 4 5 4 10 0 6 -5 10 -11 10 -5 0
-7 -4 -4 -10z"/>
<path d="M2155 1404 c-19 -15 -22 -21 -9 -15 18 9 52 41 43 41 -2 0 -17 -12
-34 -26z"/>
<path d="M790 1382 c23 -28 30 -31 80 -30 30 1 43 3 28 5 -16 2 -28 8 -28 13
0 5 -11 7 -25 4 -16 -3 -23 0 -21 8 1 7 1 9 -2 5 -2 -4 -16 0 -30 9 l-26 17
24 -31z"/>
<path d="M2089 1405 c-1 -3 -2 -8 -3 -12 -1 -5 -5 -14 -9 -20 -6 -9 0 -13 21
-13 16 0 44 -3 61 -6 26 -6 30 -4 25 10 -4 12 -14 14 -36 11 -27 -5 -30 -3
-25 15 3 11 1 20 -4 20 -5 0 -9 -4 -9 -10 0 -5 -5 -10 -11 -10 -5 0 -7 5 -4
10 3 6 4 10 1 10 -3 0 -7 -2 -7 -5z"/>
<path d="M1270 1390 c0 -5 -12 -10 -27 -11 l-28 -1 30 -9 c54 -16 142 -22 149
-10 4 6 16 11 27 11 12 0 19 5 17 12 -7 20 -23 19 -49 -2 -17 -15 -31 -20 -49
-15 -14 4 -35 7 -47 7 -14 0 -20 5 -16 14 3 8 2 14 -1 14 -3 0 -6 -4 -6 -10z"/>
<path d="M1504 1389 c-7 -13 21 -17 61 -9 43 8 40 11 -18 13 -22 1 -41 -1 -43
-4z"/>
<path d="M759 1359 c-9 -18 -8 -20 12 -17 27 4 36 23 15 31 -10 4 -20 -2 -27
-14z"/>
<path d="M1020 1364 c0 -7 -13 -10 -31 -8 -18 2 -28 0 -24 -6 7 -11 58 -14 69
-3 4 4 47 6 96 4 79 -2 89 -1 84 13 -4 11 -10 13 -18 7 -11 -9 -126 -11 -126
-1 0 3 -11 5 -25 5 -14 0 -25 -5 -25 -11z"/>
<path d="M1970 1364 c0 -8 5 -12 10 -9 6 4 8 11 5 16 -9 14 -15 11 -15 -7z"/>
<path d="M828 1333 c6 -2 18 -2 25 0 6 3 1 5 -13 5 -14 0 -19 -2 -12 -5z"/>
<path d="M2088 1333 c7 -3 16 -2 19 1 4 3 -2 6 -13 5 -11 0 -14 -3 -6 -6z"/>
<path d="M1018 1313 c7 -3 16 -2 19 1 4 3 -2 6 -13 5 -11 0 -14 -3 -6 -6z"/>
<path d="M1998 1293 c6 -2 18 -2 25 0 6 3 1 5 -13 5 -14 0 -19 -2 -12 -5z"/>
<path d="M1035 1251 c-16 -5 -22 -9 -12 -10 15 -1 17 -15 17 -155 0 -150 0
-154 -22 -162 -28 -10 131 -18 179 -9 130 24 163 246 48 321 -30 20 -159 28
-210 15z m171 -30 c74 -45 84 -193 19 -258 -29 -29 -39 -33 -89 -33 l-56 0 0
133 c0 173 2 177 54 177 23 0 55 -9 72 -19z"/>
<path d="M1374 1245 c-4 -9 -2 -21 4 -27 16 -16 47 -5 47 17 0 26 -42 34 -51
10z"/>
<path d="M1388 1143 c-29 -4 -39 -23 -13 -23 12 0 15 -17 15 -95 0 -78 -3 -95
-15 -95 -8 0 -15 -4 -15 -10 0 -5 25 -10 56 -10 34 0 53 4 49 10 -3 6 -13 10
-21 10 -11 0 -14 21 -14 110 0 61 -3 109 -7 109 -5 -1 -20 -4 -35 -6z"/>
<path d="M1790 1139 c-26 -11 -40 -26 -40 -46 0 -22 35 -14 45 9 21 48 75 29
75 -27 0 -30 -3 -33 -38 -39 -54 -8 -92 -40 -92 -76 0 -54 76 -76 111 -34 15
18 29 18 29 -1 0 -11 11 -15 36 -15 21 0 33 4 29 10 -3 6 -13 10 -21 10 -11 0
-14 18 -14 90 0 77 -3 93 -20 110 -21 21 -60 25 -100 9z m80 -154 c0 -24 -6
-37 -21 -45 -33 -18 -64 -9 -67 21 -4 34 21 59 59 59 26 0 29 -3 29 -35z"/>
<path d="M1487 1122 c12 -9 40 -65 63 -124 23 -60 44 -108 45 -108 2 0 22 48
45 108 23 61 51 114 63 124 22 17 21 18 -28 17 -43 0 -48 -1 -33 -13 17 -12
16 -18 -9 -92 -14 -43 -29 -72 -31 -64 -3 8 -16 44 -28 79 -22 60 -22 65 -6
77 15 12 8 13 -43 13 -59 1 -59 0 -38 -17z"/>
<path d="M1100 651 c0 -6 4 -13 10 -16 6 -3 7 1 4 9 -7 18 -14 21 -14 7z"/>
<path d="M1220 651 c0 -6 4 -13 10 -16 6 -3 7 1 4 9 -7 18 -14 21 -14 7z"/>
</g>
</svg>
